<svg width="163" height="100" viewBox="0 0 163 100" fill="none" xmlns="http://www.w3.org/2000/svg">
<path fill-rule="evenodd" clip-rule="evenodd" d="M99.9907 -101.658C115.215 -94.4662 130.936 -86.9153 139.156 -83.1571C183.969 -62.6687 155.482 -41.2278 134.767 -23.0624C105.673 2.44894 55.8879 48.4658 32.2256 68.3772C21.0786 77.7564 3.76427 93.7875 -16.8284 84.06C-21.9585 81.6366 -34.8249 75.5589 -38.1824 73.9728C-58.0907 64.5686 -50.9004 45.1623 -46.1131 31.3717C-36.9056 4.84806 -13.0919 -53.8563 -0.578268 -86.9962C8.77769 -111.773 17.7667 -140.499 60.8171 -120.162C68.013 -116.763 90.723 -106.036 99.9907 -101.658Z" fill="#778DFF"/>
<path d="M0 12H120C131.046 12 140 20.9543 140 32V32C140 43.0457 131.046 52 120 52H0V12Z" fill="#232855"/>
<path d="M22.2918 40.1251C29.8371 40.1251 33.9652 33.8724 33.9652 28.4517C33.9652 28.2759 33.9613 28.0962 33.9535 27.9204C34.7566 27.3397 35.4496 26.6203 36 25.7962C35.2521 26.129 34.458 26.3463 33.6449 26.4407C34.5011 25.9275 35.1421 25.1213 35.4492 24.1716C34.6438 24.6489 33.763 24.9856 32.8445 25.1673C32.2257 24.5098 31.4075 24.0744 30.5164 23.9285C29.6253 23.7826 28.711 23.9343 27.9148 24.3602C27.1186 24.7861 26.4848 25.4624 26.1115 26.2845C25.7382 27.1067 25.6462 28.029 25.8496 28.9087C24.2187 28.8269 22.6233 28.4032 21.1667 27.6652C19.71 26.9272 18.4247 25.8913 17.3941 24.6247C16.8703 25.5278 16.71 26.5965 16.9459 27.6135C17.1817 28.6306 17.7959 29.5197 18.6637 30.1001C18.0122 30.0794 17.375 29.904 16.8047 29.5884V29.6392C16.8041 30.5869 17.1317 31.5056 17.7319 32.2391C18.3321 32.9726 19.1678 33.4756 20.0969 33.6626C19.4934 33.8277 18.86 33.8518 18.2457 33.7329C18.5079 34.548 19.018 35.2609 19.7048 35.7721C20.3916 36.2833 21.2209 36.5673 22.077 36.5845C20.6237 37.726 18.8285 38.3452 16.9805 38.3423C16.6527 38.3418 16.3253 38.3217 16 38.2821C17.8774 39.4866 20.0613 40.1263 22.2918 40.1251Z" fill="#778DFF"/>
<path d="M74.2271 22H70.8565V35.6232C70.8565 37.2464 69.5601 38.5797 67.9468 38.5797C66.3336 38.5797 65.0372 37.2464 65.0372 35.6232C65.0372 34.029 66.3048 32.7246 67.8604 32.6667V29.2464C64.4322 29.3043 61.6666 32.1159 61.6666 35.6232C61.6666 39.1594 64.4898 42 67.9757 42C71.4614 42 74.2847 39.1304 74.2847 35.6232V28.6377C75.5522 29.5652 77.1079 30.1159 78.75 30.1449V26.7246C76.2148 26.6377 74.2271 24.5507 74.2271 22Z" fill="#778DFF"/>
<g clip-path="url(#clip0_1911_21125)">
<path d="M114 23.8008C116.672 23.8008 116.988 23.8125 118.039 23.8594C119.016 23.9023 119.543 24.0664 119.895 24.2031C120.359 24.3828 120.695 24.6016 121.043 24.9492C121.395 25.3008 121.609 25.6328 121.789 26.0977C121.926 26.4492 122.09 26.9805 122.133 27.9531C122.18 29.0078 122.191 29.3242 122.191 31.9922C122.191 34.6641 122.18 34.9805 122.133 36.0312C122.09 37.0078 121.926 37.5352 121.789 37.8867C121.609 38.3516 121.391 38.6875 121.043 39.0352C120.691 39.3867 120.359 39.6016 119.895 39.7812C119.543 39.918 119.012 40.082 118.039 40.125C116.984 40.1719 116.668 40.1836 114 40.1836C111.328 40.1836 111.012 40.1719 109.961 40.125C108.984 40.082 108.457 39.918 108.105 39.7812C107.641 39.6016 107.305 39.3828 106.957 39.0352C106.605 38.6836 106.391 38.3516 106.211 37.8867C106.074 37.5352 105.91 37.0039 105.867 36.0312C105.82 34.9766 105.809 34.6602 105.809 31.9922C105.809 29.3203 105.82 29.0039 105.867 27.9531C105.91 26.9766 106.074 26.4492 106.211 26.0977C106.391 25.6328 106.609 25.2969 106.957 24.9492C107.309 24.5977 107.641 24.3828 108.105 24.2031C108.457 24.0664 108.988 23.9023 109.961 23.8594C111.012 23.8125 111.328 23.8008 114 23.8008ZM114 22C111.285 22 110.945 22.0117 109.879 22.0586C108.816 22.1055 108.086 22.2773 107.453 22.5234C106.793 22.7812 106.234 23.1211 105.68 23.6797C105.121 24.2344 104.781 24.793 104.523 25.4492C104.277 26.0859 104.105 26.8125 104.059 27.875C104.012 28.9453 104 29.2852 104 32C104 34.7148 104.012 35.0547 104.059 36.1211C104.105 37.1836 104.277 37.9141 104.523 38.5469C104.781 39.207 105.121 39.7656 105.68 40.3203C106.234 40.875 106.793 41.2187 107.449 41.4727C108.086 41.7187 108.813 41.8906 109.875 41.9375C110.941 41.9844 111.281 41.9961 113.996 41.9961C116.711 41.9961 117.051 41.9844 118.117 41.9375C119.18 41.8906 119.91 41.7187 120.543 41.4727C121.199 41.2187 121.758 40.875 122.313 40.3203C122.867 39.7656 123.211 39.207 123.465 38.5508C123.711 37.9141 123.883 37.1875 123.93 36.125C123.977 35.0586 123.988 34.7187 123.988 32.0039C123.988 29.2891 123.977 28.9492 123.93 27.8828C123.883 26.8203 123.711 26.0898 123.465 25.457C123.219 24.793 122.879 24.2344 122.32 23.6797C121.766 23.125 121.207 22.7812 120.551 22.5273C119.914 22.2812 119.188 22.1094 118.125 22.0625C117.055 22.0117 116.715 22 114 22Z" fill="#778DFF"/>
<path d="M114 26.8633C111.164 26.8633 108.863 29.1641 108.863 32C108.863 34.8359 111.164 37.1367 114 37.1367C116.836 37.1367 119.137 34.8359 119.137 32C119.137 29.1641 116.836 26.8633 114 26.8633ZM114 35.332C112.16 35.332 110.668 33.8398 110.668 32C110.668 30.1602 112.16 28.668 114 28.668C115.84 28.668 117.332 30.1602 117.332 32C117.332 33.8398 115.84 35.332 114 35.332Z" fill="#778DFF"/>
<path d="M120.539 26.6602C120.539 27.3242 120 27.8594 119.34 27.8594C118.676 27.8594 118.141 27.3203 118.141 26.6602C118.141 25.9961 118.68 25.4609 119.34 25.4609C120 25.4609 120.539 26 120.539 26.6602Z" fill="#778DFF"/>
</g>
<path d="M0 60H120C131.046 60 140 68.9543 140 80V80C140 91.0457 131.046 100 120 100H0V60Z" fill="#232855"/>
<path d="M0 75H91C93.7614 75 96 77.2386 96 80C96 82.7614 93.7614 85 91 85H0V75Z" fill="#778DFF"/>
<path fill-rule="evenodd" clip-rule="evenodd" d="M112.75 73.125C109.643 73.125 107.125 75.6434 107.125 78.75C107.125 81.8566 109.643 84.375 112.75 84.375C114.303 84.375 115.709 83.7461 116.727 82.7275C117.746 81.7089 118.375 80.3035 118.375 78.75C118.375 75.6434 115.857 73.125 112.75 73.125ZM105.875 78.75C105.875 74.953 108.953 71.875 112.75 71.875C116.547 71.875 119.625 74.953 119.625 78.75C119.625 80.4232 119.027 81.9575 118.033 83.1494L121.942 87.0581C122.186 87.3021 122.186 87.6979 121.942 87.9419C121.698 88.186 121.302 88.186 121.058 87.9419L117.149 84.0333C115.958 85.0266 114.423 85.625 112.75 85.625C108.953 85.625 105.875 82.547 105.875 78.75Z" fill="#778DFF"/>
<path d="M139.713 12.3867C136.014 13.691 134.694 15.0127 133.391 18.717C133.252 19.0996 132.731 19.0996 132.592 18.717C131.306 15.0127 129.986 13.691 126.287 12.3867C125.904 12.2476 125.904 11.7259 126.287 11.5867C129.986 10.2998 131.306 8.97814 132.609 5.2739C132.731 4.9087 133.269 4.9087 133.391 5.2739C134.694 8.97814 136.014 10.2998 139.713 11.6041C140.096 11.7259 140.096 12.265 139.713 12.3867Z" fill="#778DFF"/>
<defs>
<clipPath id="clip0_1911_21125">
<rect width="20" height="20" fill="white" transform="translate(104 22)"/>
</clipPath>
</defs>
</svg>
