<svg width="102" height="145" viewBox="0 0 102 145" fill="none" xmlns="http://www.w3.org/2000/svg">
<path fill-rule="evenodd" clip-rule="evenodd" d="M63.8199 -73.0577C48.5957 -65.8661 32.875 -58.3152 24.6548 -54.557C-20.1586 -34.0686 8.32818 -12.6277 29.044 5.53768C58.138 31.049 107.923 77.0659 131.585 96.9773C142.732 106.357 160.046 122.388 180.639 112.66C185.769 110.237 198.635 104.159 201.993 102.573C221.901 93.1687 214.711 73.7624 209.924 59.9718C200.716 33.4482 176.902 -25.2562 164.389 -58.3962C155.033 -83.1729 146.044 -111.898 102.993 -91.5624C95.7975 -88.1632 73.0875 -77.4355 63.8199 -73.0577Z" fill="#778DFF"/>
<path d="M3 50.6001C3 40.659 11.0589 32.6001 21 32.6001H102V68.6001H21C11.0589 68.6001 3 60.5412 3 50.6001V50.6001Z" fill="#232855"/>
<path d="M24.0334 57.1001C30.0697 57.1001 33.3722 52.0979 33.3722 47.7613C33.3722 47.6207 33.3691 47.477 33.3628 47.3363C34.0052 46.8717 34.5597 46.2963 35 45.637C34.4017 45.9032 33.7664 46.077 33.1159 46.1526C33.8009 45.742 34.3137 45.0971 34.5594 44.3373C33.915 44.7191 33.2104 44.9885 32.4756 45.1338C31.9806 44.6078 31.326 44.2595 30.6131 44.1428C29.9003 44.0261 29.1688 44.1475 28.5318 44.4882C27.8949 44.8289 27.3879 45.3699 27.0892 46.0276C26.7906 46.6854 26.717 47.4232 26.8797 48.127C25.575 48.0615 24.2986 47.7226 23.1333 47.1322C21.968 46.5418 20.9398 45.7131 20.1153 44.6998C19.6963 45.4223 19.568 46.2772 19.7567 47.0908C19.9453 47.9045 20.4367 48.6157 21.1309 49.0801C20.6098 49.0635 20.1 48.9232 19.6438 48.6707V48.7113C19.6433 49.4695 19.9054 50.2045 20.3855 50.7913C20.8657 51.3781 21.5342 51.7805 22.2775 51.9301C21.7947 52.0622 21.288 52.0814 20.7966 51.9863C21.0063 52.6384 21.4144 53.2087 21.9638 53.6177C22.5133 54.0266 23.1767 54.2538 23.8616 54.2676C22.6989 55.1808 21.2628 55.6762 19.7844 55.6738C19.5222 55.6734 19.2603 55.6574 19 55.6257C20.5019 56.5893 22.249 57.101 24.0334 57.1001Z" fill="#778DFF"/>
<g clip-path="url(#clip0_2003_20215)">
<path d="M58.3817 42.6001H55.6852V53.4986C55.6852 54.7972 54.6482 55.8639 53.3575 55.8639C52.0669 55.8639 51.0298 54.7972 51.0298 53.4986C51.0298 52.2233 52.0439 51.1798 53.2884 51.1334V48.3972C50.5459 48.4436 48.3334 50.6929 48.3334 53.4986C48.3334 56.3277 50.5919 58.6001 53.3806 58.6001C56.1692 58.6001 58.4278 56.3045 58.4278 53.4986V47.9102C59.4419 48.6523 60.6864 49.0929 62 49.1161V46.3798C59.972 46.3102 58.3817 44.6407 58.3817 42.6001Z" fill="#778DFF"/>
</g>
<g clip-path="url(#clip1_2003_20215)">
<path d="M83 44.0407C85.1375 44.0407 85.3906 44.0501 86.2313 44.0876C87.0125 44.122 87.4344 44.2532 87.7156 44.3626C88.0875 44.5063 88.3563 44.6813 88.6344 44.9595C88.9156 45.2407 89.0875 45.5063 89.2313 45.8782C89.3406 46.1595 89.4719 46.5845 89.5063 47.3626C89.5438 48.2063 89.5531 48.4595 89.5531 50.5938C89.5531 52.7313 89.5438 52.9845 89.5063 53.8251C89.4719 54.6063 89.3406 55.0282 89.2313 55.3095C89.0875 55.6813 88.9125 55.9501 88.6344 56.2282C88.3531 56.5095 88.0875 56.6813 87.7156 56.8251C87.4344 56.9345 87.0094 57.0657 86.2313 57.1001C85.3875 57.1376 85.1344 57.147 83 57.147C80.8625 57.147 80.6094 57.1376 79.7688 57.1001C78.9875 57.0657 78.5656 56.9345 78.2844 56.8251C77.9125 56.6813 77.6438 56.5063 77.3656 56.2282C77.0844 55.947 76.9125 55.6813 76.7688 55.3095C76.6594 55.0282 76.5281 54.6032 76.4938 53.8251C76.4563 52.9813 76.4469 52.7282 76.4469 50.5938C76.4469 48.4563 76.4563 48.2032 76.4938 47.3626C76.5281 46.5813 76.6594 46.1595 76.7688 45.8782C76.9125 45.5063 77.0875 45.2376 77.3656 44.9595C77.6469 44.6782 77.9125 44.5063 78.2844 44.3626C78.5656 44.2532 78.9906 44.122 79.7688 44.0876C80.6094 44.0501 80.8625 44.0407 83 44.0407ZM83 42.6001C80.8281 42.6001 80.5563 42.6095 79.7031 42.647C78.8531 42.6845 78.2688 42.822 77.7625 43.0188C77.2344 43.2251 76.7875 43.497 76.3438 43.9438C75.8969 44.3876 75.625 44.8345 75.4188 45.3595C75.2219 45.8688 75.0844 46.4501 75.0469 47.3001C75.0094 48.1563 75 48.4282 75 50.6001C75 52.772 75.0094 53.0438 75.0469 53.897C75.0844 54.747 75.2219 55.3313 75.4188 55.8376C75.625 56.3657 75.8969 56.8126 76.3438 57.2563C76.7875 57.7001 77.2344 57.9751 77.7594 58.1782C78.2688 58.3751 78.85 58.5126 79.7 58.5501C80.5531 58.5876 80.825 58.597 82.9969 58.597C85.1688 58.597 85.4406 58.5876 86.2938 58.5501C87.1438 58.5126 87.7281 58.3751 88.2344 58.1782C88.7594 57.9751 89.2063 57.7001 89.65 57.2563C90.0938 56.8126 90.3688 56.3657 90.5719 55.8407C90.7688 55.3313 90.9063 54.7501 90.9438 53.9001C90.9813 53.047 90.9906 52.7751 90.9906 50.6032C90.9906 48.4313 90.9813 48.1595 90.9438 47.3063C90.9063 46.4563 90.7688 45.872 90.5719 45.3657C90.375 44.8345 90.1031 44.3876 89.6563 43.9438C89.2125 43.5001 88.7656 43.2251 88.2406 43.022C87.7313 42.8251 87.15 42.6876 86.3 42.6501C85.4438 42.6095 85.1719 42.6001 83 42.6001Z" fill="#778DFF"/>
<path d="M83 46.4907C80.7313 46.4907 78.8906 48.3313 78.8906 50.6001C78.8906 52.8688 80.7313 54.7095 83 54.7095C85.2688 54.7095 87.1094 52.8688 87.1094 50.6001C87.1094 48.3313 85.2688 46.4907 83 46.4907ZM83 53.2657C81.5281 53.2657 80.3344 52.072 80.3344 50.6001C80.3344 49.1282 81.5281 47.9345 83 47.9345C84.4719 47.9345 85.6656 49.1282 85.6656 50.6001C85.6656 52.072 84.4719 53.2657 83 53.2657Z" fill="#778DFF"/>
<path d="M88.2312 46.3285C88.2312 46.8598 87.8 47.2879 87.2719 47.2879C86.7406 47.2879 86.3125 46.8566 86.3125 46.3285C86.3125 45.7973 86.7438 45.3691 87.2719 45.3691C87.8 45.3691 88.2312 45.8004 88.2312 46.3285Z" fill="#778DFF"/>
</g>
<path d="M3 94.6001C3 84.659 11.0589 76.6001 21 76.6001H102V112.6H21C11.0589 112.6 3 104.541 3 94.6001V94.6001Z" fill="#232855"/>
<path fill-rule="evenodd" clip-rule="evenodd" d="M26 89.1001C23.5147 89.1001 21.5 91.1148 21.5 93.6001C21.5 96.0854 23.5147 98.1001 26 98.1001C27.2428 98.1001 28.3671 97.597 29.182 96.7821C29.9969 95.9672 30.5 94.8429 30.5 93.6001C30.5 91.1148 28.4853 89.1001 26 89.1001ZM20.5 93.6001C20.5 90.5625 22.9624 88.1001 26 88.1001C29.0376 88.1001 31.5 90.5625 31.5 93.6001C31.5 94.9386 31.0213 96.1661 30.2266 97.1196L33.3536 100.247C33.5488 100.442 33.5488 100.758 33.3536 100.954C33.1583 101.149 32.8417 101.149 32.6464 100.954L29.5195 97.8267C28.566 98.6214 27.3386 99.1001 26 99.1001C22.9624 99.1001 20.5 96.6377 20.5 93.6001Z" fill="#778DFF"/>
<path d="M43 94.6001C43 92.391 44.7909 90.6001 47 90.6001H102V98.6001H47C44.7909 98.6001 43 96.8092 43 94.6001Z" fill="#778DFF"/>
<path d="M16.7134 32.9868C13.0136 34.2911 11.6935 35.6128 10.3908 39.3171C10.2519 39.6997 9.73077 39.6997 9.59181 39.3171C8.30645 35.6128 6.98635 34.2911 3.2866 32.9868C2.90447 32.8477 2.90447 32.326 3.2866 32.1868C6.98635 30.8999 8.30645 29.5782 9.60918 25.874C9.73077 25.5088 10.2692 25.5088 10.3908 25.874C11.6935 29.5782 13.0136 30.8999 16.7134 32.2042C17.0955 32.326 17.0955 32.8651 16.7134 32.9868Z" fill="#778DFF"/>
<defs>
<clipPath id="clip0_2003_20215">
<rect width="16" height="16" fill="white" transform="translate(47 42.6001)"/>
</clipPath>
<clipPath id="clip1_2003_20215">
<rect width="16" height="16" fill="white" transform="translate(75 42.6001)"/>
</clipPath>
</defs>
</svg>
